<svg xmlns="http://www.w3.org/2000/svg" width="14" height="14" fill="none"><path fill="#fff" d="m4 1.552.519-.854L4 .383l-.519.315.519.854Zm3 1.821-.519.855.519.315.519-.315L7 3.373Zm-6 0-.519-.855L0 2.81v.563h1Zm0 3.902H0v.461l.351.3L1 7.275Zm6 5.115-.649.761.649.554.649-.553L7 12.39Zm6-5.115.649.76.351-.299v-.461h-1Zm0-3.902h1V2.81l-.481-.292-.519.855Zm-3-1.82.519-.855L10 .383l-.519.315.519.854Zm-6.519.854 3 1.821 1.038-1.71-3-1.82-1.038 1.71ZM1.52 4.228l3-1.82L3.48.697l-3 1.82 1.038 1.71ZM2 7.275V3.373H0v3.902h2Zm5.649 4.355-6-5.116L.35 8.036l6 5.116L7.65 11.63Zm0 1.521 6-5.115-1.298-1.522-6 5.116L7.65 13.15ZM14 7.276V3.373h-2v3.902h2Zm-.481-4.757-3-1.82-1.038 1.71 3 1.82 1.038-1.71ZM9.48.698l-3 1.82 1.038 1.71 3-1.82L9.48.697Z"/></svg>